<?xml version="1.0" encoding="UTF-8" standalone="no"?>
<!-- Created with Inkscape (http://www.inkscape.org/) -->

<svg
   width="109.74672mm"
   height="109.74672mm"
   viewBox="0 0 109.74672 109.74672"
   version="1.1"
   id="svg5"
   xml:space="preserve"
   inkscape:version="1.3.2 (091e20ef0f, 2023-11-25)"
   sodipodi:docname="logo.svg"
   xmlns:inkscape="http://www.inkscape.org/namespaces/inkscape"
   xmlns:sodipodi="http://sodipodi.sourceforge.net/DTD/sodipodi-0.dtd"
   xmlns="http://www.w3.org/2000/svg"
   xmlns:svg="http://www.w3.org/2000/svg"><sodipodi:namedview
     id="namedview7"
     pagecolor="#ffffff"
     bordercolor="#000000"
     borderopacity="0.25"
     inkscape:showpageshadow="2"
     inkscape:pageopacity="0.0"
     inkscape:pagecheckerboard="0"
     inkscape:deskcolor="#d1d1d1"
     inkscape:document-units="mm"
     showgrid="false"
     inkscape:zoom="1.0544998"
     inkscape:cx="43.622578"
     inkscape:cy="230.91517"
     inkscape:window-width="1920"
     inkscape:window-height="1131"
     inkscape:window-x="0"
     inkscape:window-y="0"
     inkscape:window-maximized="1"
     inkscape:current-layer="layer1" /><defs
     id="defs2" /><g
     inkscape:label="Calque 1"
     inkscape:groupmode="layer"
     id="layer1"
     transform="translate(-48.250182,-60.544723)"><path
       style="fill:#004aad;fill-opacity:1;stroke-width:0.264583"
       d="m 88.019837,144.02092 c -3.491791,-0.93906 -6.385494,-3.31161 -7.423833,-6.08682 -0.612206,-1.63628 -0.668787,-2.04755 -0.263075,-1.91232 0.15417,0.0514 0.565349,0.79476 0.913731,1.65193 1.876835,4.61786 7.408754,6.87587 14.680957,5.99245 3.912706,-0.47531 8.482453,-1.70649 15.709413,-4.23244 13.10515,-4.58049 15.59158,-5.15461 22.39059,-5.16999 4.02253,-0.009 5.17768,0.0756 6.48229,0.47548 2.47482,0.75852 4.10104,2.29151 4.10104,3.86593 0,0.83255 -0.38581,0.64476 -0.75117,-0.36561 -0.41486,-1.14727 -1.84758,-2.41787 -3.1442,-2.78842 -1.99422,-0.56991 -5.26792,-0.84304 -8.01088,-0.66836 -5.41231,0.34467 -10.12229,1.52801 -20.107,5.05169 -6.72415,2.373 -10.98609,3.63188 -14.19757,4.19363 -2.953248,0.51658 -8.44694,0.5128 -10.380293,-0.007 z M 76.216158,132.50671 c -5.345078,-1.19986 -9.295821,-4.28374 -11.660511,-9.10197 -1.533445,-3.12452 -1.979647,-4.91109 -2.154883,-8.62809 -0.226107,-4.79603 0.910381,-8.74014 3.273873,-11.36178 3.746801,-4.156037 10.075849,-2.68662 12.852461,2.98396 0.615368,1.25675 1.042395,2.70054 1.663253,5.62351 0.160562,0.75593 0.212992,0.70107 1.271637,-1.3306 0.607293,-1.16546 1.551036,-2.72736 2.097204,-3.47087 1.132983,-1.54235 3.999791,-4.30133 5.215875,-5.01969 l 0.819195,-0.48391 -0.07447,-2.782311 -0.07447,-2.782308 -2.182813,-0.07685 c -2.884614,-0.101555 -2.829959,-0.584613 0.06615,-0.584613 h 2.248959 v -2.645834 c 0,-1.5875 0.105833,-2.645833 0.264583,-2.645833 0.15875,0 0.264583,1.058333 0.264583,2.645833 v 2.645834 h 2.248959 c 2.896105,0 2.95076,0.483058 0.06615,0.584613 l -2.182813,0.07685 -0.07608,2.447396 c -0.04184,1.346068 0.02183,2.447393 0.141463,2.447393 0.119644,0 0.927785,-0.25969 1.795867,-0.57709 2.761372,-1.00964 5.481918,-0.692132 6.829631,0.79707 1.198529,1.32436 1.552179,4.10715 0.802561,6.3151 -0.726313,2.13931 -2.106361,3.9651 -6.03572,7.98519 l -3.780973,3.86828 -0.177726,2.21194 c -0.212259,2.64175 -0.706347,4.00576 -1.451001,4.00576 -1.905468,0 -1.725965,-3.2992 0.310753,-5.71151 l 0.689557,-0.81672 0.186531,-8.24526 c 0.102593,-4.53489 0.09064,-8.24526 -0.02655,-8.24526 -0.401548,0 -2.984217,2.28126 -4.361821,3.85278 -1.967648,2.24461 -4.503785,6.83139 -4.503785,8.14539 0,0.20485 -0.168457,0.51226 -0.374348,0.68314 -0.31436,0.26089 -0.401172,0.0223 -0.541729,-1.48896 -0.450416,-4.84273 -1.68823,-7.9946 -3.952299,-10.06384 -4.325659,-3.953405 -9.64524,-2.16446 -11.800821,3.96855 -1.661129,4.72621 -1.154512,10.6122 1.340535,15.5746 2.227979,4.43123 6.486581,7.61715 11.449333,8.56542 5.147805,0.98363 10.368273,0.17256 22.400163,-3.48018 13.865969,-4.20954 15.197779,-4.58278 20.505209,-5.74658 7.05666,-1.54737 9.58349,-1.86923 14.68437,-1.87048 5.39434,-0.001 7.11941,0.32728 10.51221,2.0024 3.67136,1.81263 6.08349,5.01775 5.84259,7.76333 -0.11547,1.31604 -0.52004,1.17648 -0.60727,-0.20949 -0.17866,-2.83839 -2.17029,-5.28446 -5.7203,-7.02552 -3.90084,-1.91313 -8.83296,-2.51685 -14.52515,-1.77798 -8.10814,1.05249 -14.29556,2.56236 -28.31041,6.90841 -6.531416,2.02541 -11.733558,3.40057 -14.948958,3.95168 -2.586955,0.4434 -8.566631,0.51242 -10.31875,0.1191 z m 12.577265,-8.63895 c 0.162463,-0.54571 0.256538,-1.52797 0.209058,-2.18282 l -0.08632,-1.19062 -0.557768,1.05833 c -0.684236,1.2983 -0.948854,2.33628 -0.736605,2.88939 0.282194,0.73539 0.86709,0.4487 1.171638,-0.57428 z M 98.5709,108.63335 c 1.98191,-4.02582 0.454432,-8.11507 -3.031263,-8.11507 -1.255821,0 -3.626157,0.64229 -4.705249,1.27498 l -0.727605,0.42661 0.0089,7.9466 0.0089,7.9466 3.791932,-3.86392 c 2.980968,-3.03756 3.976378,-4.23858 4.654378,-5.6158 z"
       id="path179" /><circle
       style="fill:none;fill-opacity:1;stroke:#5ce1e6;stroke-width:4.365;stroke-dasharray:none;stroke-opacity:1"
       id="path647"
       cx="103.12354"
       cy="115.41808"
       r="52.690861" /></g></svg>
